<?xml version="1.0" encoding="UTF-8" standalone="no"?>
<!-- Created with Inkscape (http://www.inkscape.org/) -->

<svg
   width="300"
   height="300"
   viewBox="0 0 300 300"
   version="1.1"
   id="svg1"
   xmlns="http://www.w3.org/2000/svg"
   xmlns:svg="http://www.w3.org/2000/svg">
  <defs
     id="defs1" />
  <g
     id="layer1"
     transform="translate(-1000,-250)">
    <g
       id="g17">
      <rect
         style="fill:#ff6600"
         id="rect8-2"
         width="300"
         height="300"
         x="1000"
         y="250"
         ry="50" />
      <path
         id="path14"
         style="fill:#0000aa;stroke-width:0.518113"
         d="m 1144.7106,270 -15.7386,69.48864 -66.9886,-28.64347 27.5248,61.86789 -64.5082,23.53517 64.5952,31.31392 -27.7113,58.87783 54.5064,-21.17897 36.5394,64.75851 28.3825,-69.48863 54.1371,23.81037 -24.9574,-53.76598 64.5081,-23.53693 -64.5951,-31.31214 25.1438,-66.97798 -54.2987,26.01029 z m 1.4418,36.36364 26.5749,47.09694 39.4904,-18.9169 -18.2865,48.71094 46.9779,22.77343 -46.9158,17.11826 18.1516,39.10156 -39.3732,-17.31712 -20.641,50.538 -26.5749,-47.09695 -39.6413,15.40305 20.1544,-42.82137 -46.978,-22.77343 46.9159,-17.11649 -20.0195,-44.99467 48.7198,20.83275 z" />
    </g>
  </g>
</svg>
