<?xml version="1.0" encoding="UTF-8" standalone="no"?>
<!-- Created with Inkscape (http://www.inkscape.org/) -->

<svg
   width="381.9223"
   height="381.23999"
   viewBox="0 0 101.05028 100.86975"
   version="1.1"
   id="svg1"
   xmlns:inkscape="http://www.inkscape.org/namespaces/inkscape"
   xmlns:sodipodi="http://sodipodi.sourceforge.net/DTD/sodipodi-0.dtd"
   xmlns="http://www.w3.org/2000/svg"
   xmlns:svg="http://www.w3.org/2000/svg">
  <sodipodi:namedview
     id="namedview1"
     pagecolor="#ffffff"
     bordercolor="#000000"
     borderopacity="0.25"
     inkscape:showpageshadow="2"
     inkscape:pageopacity="0.0"
     inkscape:pagecheckerboard="0"
     inkscape:deskcolor="#d1d1d1"
     inkscape:document-units="px" />
  <defs
     id="defs1" />
  <g
     inkscape:label="Layer 1"
     inkscape:groupmode="layer"
     id="layer1"
     transform="translate(-128.12032,-157.1151)">
    <g
       id="g25">
      <rect
         style="fill:#ffffff;fill-opacity:0.5;stroke-width:0.263;stroke-dasharray:none"
         id="rect1-0-4-7"
         width="79.375"
         height="79.375"
         x="141.62938"
         y="169.04121"
         inkscape:label="frost haze 2" />
      <path
         id="path25"
         style="fill:#34d6ff;fill-opacity:1;stroke-width:0.263"
         inkscape:transform-center-x="-0.87560319"
         inkscape:transform-center-y="-0.32404368"
         d="m 194.47653,157.11513 c -0.67785,0.004 -1.3516,0.10546 -2.0004,0.30179 l -6.02805,1.82417 c -1.9537,0.59118 -3.99974,0.81665 -6.03529,0.66508 l -8.58863,-0.63924 c -2.43452,-0.18125 -4.85124,0.5345 -6.79441,2.01228 l -4.03852,3.07113 c -1.94433,1.47866 -4.35891,2.20206 -6.79597,2.03606 l -10.70167,-0.72864 c -1.62984,-0.11082 -3.12016,0.91888 -3.59306,2.48253 l -3.25148,10.75077 c -0.47251,1.56228 -1.19765,3.03665 -2.14664,4.36459 l -4.42867,6.19704 c -0.84077,1.17648 -1.00093,2.7084 -0.42168,4.03334 l 4.08554,9.34518 c 0.58453,1.33687 0.56247,2.86121 -0.0605,4.18062 l -4.95577,10.49445 c -0.80136,1.69713 -0.80136,3.66379 0,5.36092 l 6.98097,14.78566 c 0.66137,1.40078 0.92995,2.66717 1.11004,4.90154 l 0.72367,7.80275 c 0.23881,1.84224 1.17408,2.12671 2.10375,1.76682 l 11.89066,-1.90322 c 2.13944,-0.33433 3.17871,-0.49745 4.43604,0.10608 l 5.70893,6.74448 c 1.97644,0.94868 4.225,1.16672 6.3469,0.61547 l 9.24543,-2.40192 c 1.52302,-0.39589 3.11897,-0.41928 4.65294,-0.0682 l 10.45828,2.39468 c 2.31342,0.52957 4.7427,0.0185 6.64662,-1.39836 l 6.55154,-4.87516 c 1.31706,-0.98006 9.1704,0.0232 10.81023,-0.0551 l 9.23406,-0.44132 c 1.18772,-0.0567 2.04214,-1.16361 1.79627,-2.32699 l -3.13184,-11.62776 c -0.23658,-1.11843 -0.72266,-2.68024 0.3062,-3.99191 l 2.89888,-3.11401 c 0.71859,-1.00333 0.67708,-2.10537 0.38406,-3.06771 l -2.88457,-9.47591 c -0.51357,-1.68719 -0.48591,-3.49284 0.0791,-5.16351 l 3.70985,-10.97195 c 0.62281,-1.8416 0.4983,-3.85404 -0.34675,-5.60483 l -3.67936,-7.62227 c -0.53981,-1.11849 1.9793,-5.93524 1.84364,-7.16975 l -1.3503,-12.27832 c -0.21192,-1.92884 -1.53981,-3.552 -3.38843,-4.14187 l -8.061,-2.5709 c -2.05514,-0.65565 -6.87966,2.03639 -8.69491,0.87091 l -6.78098,-4.35322 c -1.14663,-0.73612 -2.48216,-1.12386 -3.84472,-1.11621 z m -19.81895,16.79639 v 5.1e-4 c 0.20755,0.0637 0.38573,0.19906 0.50281,0.38189 l 5.08186,7.93492 c 0.82983,1.29576 2.71842,1.30889 3.56619,0.0248 l 4.6297,-7.01094 c 0.49223,-0.74535 1.61183,-0.65965 1.98489,0.15193 l 8.16126,17.74724 c 0.59027,1.28259 2.42467,1.2484 2.96674,-0.0553 l 6.504,-15.65279 c 0.19641,-0.4721 0.89344,-0.36783 0.94309,0.14108 l 1.418,14.58567 c 0.1214,1.24904 0.52423,2.45433 1.17822,3.52537 l 3.76618,6.16758 c 0.79681,1.30476 0.98872,2.89093 0.52607,4.34807 l -2.26084,7.12101 c -0.43239,1.36177 -0.66902,2.77809 -0.7028,4.20646 l -0.1602,6.79028 c -0.0183,0.77803 -0.43368,1.49252 -1.10071,1.89343 l -6.24303,3.75326 c -0.90627,0.54471 -1.67534,1.29027 -2.24792,2.17919 l -4.19975,6.52105 c -0.77053,1.1961 -2.28627,1.66987 -3.60081,1.12551 l -5.87509,-2.43344 c -1.32941,-0.55065 -2.86119,-0.21305 -3.83595,0.84543 l -6.42854,6.98097 c -0.38004,0.41272 -1.05285,0.33128 -1.32344,-0.1602 l -1.61075,-2.92695 c -0.86714,-1.5749 -2.53828,-2.53675 -4.33565,-2.49546 l -7.8972,0.18087 c -1.58805,0.0363 -3.03026,-0.92151 -3.6127,-2.39934 l -3.33158,-8.4522 c -0.32543,-0.8249 -1.34411,-1.11756 -2.05775,-0.59117 l -5.564,4.10569 c -1.0648,0.78556 -2.5803,0.11891 -2.72077,-1.19683 l -1.2671,-11.89436 c -0.17767,-1.66822 0.0494,-3.35468 0.66197,-4.9165 l 2.73627,-6.97787 c 0.34488,-0.87904 0.35243,-1.85458 0.0212,-2.73885 l -3.02153,-8.06308 c -0.61807,-1.64935 -0.67725,-3.45605 -0.16846,-5.14232 l 3.60805,-11.95586 c 0.24267,-0.8038 1.36223,-0.85288 1.67431,-0.0734 l 5.83996,14.62391 c 0.23242,0.58087 1.08164,0.48898 1.18442,-0.12816 l 3.08715,-18.65932 c 0.13339,-0.80409 1.03961,-1.21613 1.73323,-0.78807 l 6.26835,3.86953 c 0.99682,0.61537 2.30687,0.24186 2.82929,-0.80667 l 1.60403,-3.21944 c 0.2,-0.40117 0.66085,-0.5988 1.08934,-0.46715 z"
         sodipodi:nodetypes="sscccccccccccccccccccccccsccccsccccccccccccccccccsscccccccccccccccccccccccscccccccccccccccsccccccccscsc" />
    </g>
  </g>
</svg>
