<?xml version="1.0" encoding="UTF-8" standalone="no"?>
<!-- Created with Inkscape (http://www.inkscape.org/) -->

<svg
   width="300"
   height="299.99997"
   viewBox="0 0 79.375 79.374992"
   version="1.1"
   id="svg1"
   xmlns:inkscape="http://www.inkscape.org/namespaces/inkscape"
   xmlns:sodipodi="http://sodipodi.sourceforge.net/DTD/sodipodi-0.dtd"
   xmlns="http://www.w3.org/2000/svg"
   xmlns:svg="http://www.w3.org/2000/svg">
  <sodipodi:namedview
     id="namedview1"
     pagecolor="#ffffff"
     bordercolor="#000000"
     borderopacity="0.25"
     inkscape:showpageshadow="2"
     inkscape:pageopacity="0.0"
     inkscape:pagecheckerboard="0"
     inkscape:deskcolor="#d1d1d1"
     inkscape:document-units="px" />
  <defs
     id="defs1">
    <inkscape:path-effect
       effect="fillet_chamfer"
       id="path-effect12"
       is_visible="true"
       lpeversion="1"
       nodesatellites_param="F,0,0,1,0,0,0,1 @ F,0,0,1,0,0,0,1 @ F,0,0,1,0,0,0,1 @ F,0,0,1,0,0,0,1 | F,0,0,1,0,1.6158492,0,1 @ F,0,0,1,0,3.2705064,0,1 @ F,0,0,1,0,2.0486492,0,1 @ F,0,0,1,0,3.7019573,0,1 @ F,0,0,1,0,1.9630415,0,1 @ F,0,0,1,0,1.9067286,0,1 @ F,0,0,1,0,2.40663,0,1 @ F,0,0,1,0,2.1540782,0,1 @ F,0,0,1,0,1.2496528,0,1 @ F,0,0,1,0,1.6071921,0,1 @ F,0,0,1,0,2.4576337,0,1 @ F,0,0,1,0,2.3956477,0,1 @ F,0,0,1,0,1.1412687,0,1 @ F,0,0,1,0,2.9255218,0,1 @ F,0,0,1,0,2.6439371,0,1 @ F,0,0,1,0,1.7571187,0,1 @ F,0,0,1,0,2.9883756,0,1 @ F,0,0,1,0,2.5535329,0,1 @ F,0,0,1,0,1.466711,0,1 @ F,0,0,1,0,2.7155895,0,1 @ F,0,0,1,0,2.5383046,0,1 @ F,0,0,1,0,2.2182616,0,1 @ F,0,0,1,0,1.7092683,0,1 @ F,0,0,1,0,2.1815902,0,1"
       radius="0"
       unit="px"
       method="auto"
       mode="F"
       chamfer_steps="1"
       flexible="false"
       use_knot_distance="true"
       apply_no_radius="true"
       apply_with_radius="true"
       only_selected="false"
       hide_knots="false" />
  </defs>
  <g
     inkscape:label="Layer 1"
     inkscape:groupmode="layer"
     id="layer1"
     transform="translate(-175.60663,-64.774384)">
    <g
       id="g13"
       transform="translate(35.886856,-114.97507)">
      <rect
         style="fill:#ffffff;fill-opacity:0.5;stroke-width:0.263;stroke-dasharray:none"
         id="rect1-0-4"
         width="79.375"
         height="79.375"
         x="139.71977"
         y="179.74945"
         inkscape:label="frost haze" />
      <path
         id="rect1-02"
         style="fill:#00ffff;stroke-width:0.26343"
         d="m 61.576559,192.87199 v 79.37499 h 79.375001 v -79.37499 z m 35.27466,6.05984 5.081911,7.93521 a 2.1269837,2.1269837 0.40154361 0 0 3.56605,0.025 l 4.6299,-7.01105 a 1.1387391,1.1387391 4.3721892 0 1 1.98483,0.15176 l 8.16098,17.74712 a 1.6195959,1.6195959 178.93399 0 0 2.9671,-0.0552 l 6.50384,-15.65276 a 0.49156104,0.49156104 8.5049993 0 1 0.94318,0.14105 l 1.41814,14.58588 a 8.3066691,8.3066691 71.51893 0 0 1.1782,3.52512 l 3.76618,6.16784 a 5.2779781,5.2779781 83.102932 0 1 0.52592,4.34778 l -2.26099,7.12117 a 15.077399,15.077399 99.484054 0 0 -0.70274,4.20656 l -0.16042,6.79039 a 2.2715224,2.2715224 120.17024 0 1 -1.10053,1.89316 l -6.24299,3.75308 a 6.9053028,6.9053028 135.88496 0 0 -2.24767,2.17928 l -4.19972,6.521 a 2.9436048,2.9436048 162.64149 0 1 -3.60125,1.1257 l -5.8747,-2.43341 a 3.4302417,3.4302417 167.57012 0 0 -3.83608,0.84552 l -6.4284,6.98103 a 0.82117604,0.82117604 6.9039321 0 1 -1.323452,-0.16025 l -1.611199,-2.92687 a 4.8229737,4.8229737 29.927634 0 0 -4.335575,-2.49585 l -7.896813,0.18094 a 3.7900105,3.7900105 33.587341 0 1 -3.612797,-2.39919 l -3.331535,-8.45207 a 1.3503792,1.3503792 16.030195 0 0 -2.058156,-0.59134 l -5.563629,4.10588 a 1.7133075,1.7133075 23.746477 0 1 -2.721024,-1.19707 l -1.267,-11.89451 a 10.437639,10.437639 97.666991 0 1 0.661842,-4.91642 l 2.736595,-6.97788 a 3.825154,3.825154 90.435445 0 0 0.02082,-2.7389 l -3.021487,-8.06275 a 8.0377461,8.0377461 88.124479 0 1 -0.168401,-5.14269 l 3.607918,-11.95584 a 0.88790641,0.88790641 177.51227 0 1 1.674639,-0.0728 l 5.839668,14.6241 a 0.61854377,0.61854377 173.81297 0 0 1.184687,-0.12843 l 3.08685,-18.65897 a 1.1465442,1.1465442 155.5407 0 1 1.733437,-0.78849 l 6.268528,3.86967 a 1.991966,1.991966 164.08633 0 0 2.829272,-0.80667 l 1.604028,-3.2193 a 0.91646551,0.91646551 176.92418 0 1 1.592047,-0.0856 z"
         sodipodi:nodetypes="cccccccccccccccccccccccccccccc"
         inkscape:path-effect="#path-effect12"
         inkscape:original-d="m 61.576559,192.87199 v 79.37499 h 79.375001 v -79.37499 z m 34.40322,4.69912 7.717161,12.05005 7.56106,-11.44971 10.56354,22.9718 8.67751,-20.88414 1.79262,18.43749 6.01406,9.84917 -3.64113,11.46804 -0.24081,10.19317 -8.69146,5.22501 -6.40064,9.93841 -10.35854,-4.29069 -8.82427,9.58287 -3.572392,-6.48952 -13.46481,0.30851 -4.94544,-12.54653 -9.381928,6.92374 -1.854002,-17.40524 4.204416,-10.72059 -4.489119,-11.97909 5.12578,-16.9857 7.603615,19.0415 3.727888,-22.53384 9.57935,5.9135 z"
         transform="translate(78.14321,-13.122533)"
         inkscape:label="frost edge" />
    </g>
  </g>
</svg>
