<?xml version="1.0" encoding="UTF-8" standalone="no"?>
<!-- Created with Inkscape (http://www.inkscape.org/) -->

<svg
   width="300"
   height="300"
   viewBox="0 0 300 300"
   version="1.1"
   id="svg1"
   xmlns="http://www.w3.org/2000/svg"
   xmlns:svg="http://www.w3.org/2000/svg">
  <defs
     id="defs1" />
  <g
     id="layer1"
     transform="translate(-1350,-250)">
    <g
       id="g18">
      <rect
         style="fill:#5a2ca0"
         id="rect8"
         width="300"
         height="300"
         x="1350"
         y="250"
         ry="50" />
      <path
         id="path8"
         style="fill:#ff6600;stroke-width:0.595488"
         d="m 1500,275 -0.916,1.15234 a 122.8578,128.4778 0 0 1 -110.9668,45.16602 l -0.6172,-0.0879 c 0,131.12014 42.8849,161.73864 112.5,203.76954 69.6151,-42.0308 112.5,-73.5906 112.5,-203.76954 l -0.9004,0.78321 -4.1387,0.56836 a 114.8393,120.0925 0 0 1 -103.2031,-42.23437 z m 0,27 3.3106,4.16016 a 89.319453,93.405277 0 0 0 80.2695,32.84765 l 3.2207,-0.44141 0.6992,-0.60937 c 0,101.25027 -33.3549,125.79767 -87.5,158.48827 -54.1451,-32.6907 -87.5,-56.5059 -87.5,-158.48827 l 0.4805,0.0684 a 95.556069,99.927182 0 0 0 86.3066,-35.12891 z" />
    </g>
  </g>
</svg>
