<?xml version="1.0" encoding="UTF-8" standalone="no"?>
<!-- Created with Inkscape (http://www.inkscape.org/) -->

<svg
   width="235.66492"
   height="276.37839"
   viewBox="0 0 235.66492 276.37839"
   version="1.1"
   id="svg1"
   inkscape:version="1.3 (0e150ed6c4, 2023-07-21)"
   sodipodi:docname="Powerups[70].svg"
   xmlns:inkscape="http://www.inkscape.org/namespaces/inkscape"
   xmlns:sodipodi="http://sodipodi.sourceforge.net/DTD/sodipodi-0.dtd"
   xmlns="http://www.w3.org/2000/svg"
   xmlns:svg="http://www.w3.org/2000/svg">
  <sodipodi:namedview
     id="namedview1"
     pagecolor="#ffffff"
     bordercolor="#000000"
     borderopacity="0.25"
     inkscape:showpageshadow="2"
     inkscape:pageopacity="0.0"
     inkscape:pagecheckerboard="0"
     inkscape:deskcolor="#d1d1d1"
     inkscape:document-units="px"
     inkscape:zoom="1"
     inkscape:cx="995"
     inkscape:cy="746.5"
     inkscape:window-width="2560"
     inkscape:window-height="1566"
     inkscape:window-x="-11"
     inkscape:window-y="-11"
     inkscape:window-maximized="1"
     inkscape:current-layer="layer1"
     inkscape:export-bgcolor="#ffffff00" />
  <defs
     id="defs1">
    <inkscape:path-effect
       effect="bend_path"
       id="path-effect3-6"
       is_visible="true"
       lpeversion="1"
       bendpath="m 504.65171,417.86491 c 64.42072,0.89565 129.2258,1.71443 206.69689,0"
       prop_scale="1.07"
       scale_y_rel="false"
       vertical="false"
       hide_knot="false"
       bendpath-nodetypes="cc" />
    <inkscape:path-effect
       effect="bend_path"
       id="path-effect3-6-4"
       is_visible="true"
       lpeversion="1"
       bendpath="m 504.65171,417.86491 c 64.42072,0.89565 129.2258,1.71443 206.69689,0"
       prop_scale="1.07"
       scale_y_rel="false"
       vertical="false"
       hide_knot="false"
       bendpath-nodetypes="cc" />
    <inkscape:path-effect
       effect="bend_path"
       id="path-effect3-6-4-8"
       is_visible="true"
       lpeversion="1"
       bendpath="m 504.65171,417.86491 c 64.42072,0.89565 129.2258,1.71443 206.69689,0"
       prop_scale="1.07"
       scale_y_rel="false"
       vertical="false"
       hide_knot="false"
       bendpath-nodetypes="cc" />
    <inkscape:path-effect
       effect="bend_path"
       id="path-effect3-6-4-3"
       is_visible="true"
       lpeversion="1"
       bendpath="m 504.65171,417.86491 c 64.42072,0.89565 129.2258,1.71443 206.69689,0"
       prop_scale="1.07"
       scale_y_rel="false"
       vertical="false"
       hide_knot="false"
       bendpath-nodetypes="cc" />
    <inkscape:path-effect
       effect="bend_path"
       id="path-effect3-6-4-3-5"
       is_visible="true"
       lpeversion="1"
       bendpath="m 504.65171,417.86491 c 64.42072,0.89565 129.2258,1.71443 206.69689,0"
       prop_scale="1.07"
       scale_y_rel="false"
       vertical="false"
       hide_knot="false"
       bendpath-nodetypes="cc" />
  </defs>
  <g
     inkscape:label="icons"
     inkscape:groupmode="layer"
     id="layer1"
     transform="translate(-503.25848,-263.7037)">
    <g
       id="g5"
       inkscape:export-filename="g5.svg"
       inkscape:export-xdpi="104.20496"
       inkscape:export-ydpi="104.20496">
      <path
         id="path2-3-3-4-5"
         d="m 504.54125,417.84557 c 69.35032,-31.67172 138.34818,-63.7504 204.53347,-97.87163 1.3338,65.18925 2.6613,130.37858 3.98251,195.56799 -48.8486,3.17001 -84.20544,-9.79018 -115.4081,-28.99303 -31.33232,-19.28265 -58.91699,-45.07407 -93.10788,-68.70333 z"
         inkscape:label="path2"
         sodipodi:nodetypes="cccc"
         inkscape:path-effect="#path-effect3-6-4-3-5"
         inkscape:original-d="m 524.65171,417.84827 186.69689,-91.4949 -0.29761,182.81159 C 625.03907,513.10872 587.0008,461.12203 524.65171,417.84827 Z"
         transform="matrix(0.71006159,0,0,0.76183355,224.12736,58.517071)"
         style="fill:#ff7103;fill-opacity:1" />
      <g
         id="g4">
        <path
           id="path2"
           d="m 503.25849,406.63534 c 59.85088,-26.19574 119.40596,-52.69336 177.1446,-80.54797 8.47717,-4.08961 28.21865,-21.31628 28.99063,-11.93582 2.3064,58.45818 -2.5683,137.1536 2.5665,194.98134 -45.23699,3.09922 -81.82863,-10.90114 -114.76873,-31.38722 -32.94009,-20.48608 -62.33062,-47.51747 -93.933,-71.11033 z"
           inkscape:label="path2"
           sodipodi:nodetypes="ccccsc"
           style="fill:#ffff00" />
        <path
           id="path2-3"
           d="m 504.54125,417.84557 c 69.35032,-31.67172 138.34818,-63.7504 204.53347,-97.87163 1.3338,65.18925 2.6613,130.37858 3.98251,195.56799 -48.8486,3.17001 -84.20544,-9.79018 -115.4081,-28.99303 -31.33232,-19.28265 -58.91699,-45.07407 -93.10788,-68.70333 z"
           inkscape:label="path2"
           sodipodi:nodetypes="cccc"
           inkscape:path-effect="#path-effect3-6"
           inkscape:original-d="m 524.65171,417.84827 186.69689,-91.4949 -0.29761,182.81159 C 625.03907,513.10872 587.0008,461.12203 524.65171,417.84827 Z"
           transform="matrix(0.82255556,0,0,-0.88778091,110.07321,741.75379)"
           style="fill:#ff0000" />
        <path
           id="path2-3-3"
           d="m 504.54125,417.84557 c 69.35032,-31.67172 138.34818,-63.7504 204.53347,-97.87163 1.3338,65.18925 2.6613,130.37858 3.98251,195.56799 -48.8486,3.17001 -84.20544,-9.79018 -115.4081,-28.99303 -31.33232,-19.28265 -58.91699,-45.07407 -93.10788,-68.70333 z"
           inkscape:label="path2"
           sodipodi:nodetypes="cccc"
           inkscape:path-effect="#path-effect3-6-4"
           inkscape:original-d="m 524.65171,417.84827 186.69689,-91.4949 -0.29761,182.81159 C 625.03907,513.10872 587.0008,461.12203 524.65171,417.84827 Z"
           transform="matrix(0.82255556,0,0,0.88778091,128.70284,81.970274)"
           style="fill:#ff9d2a;fill-opacity:1" />
        <path
           id="path2-3-3-8"
           d="m 504.54125,417.84557 c 69.35032,-31.67172 138.34818,-63.7504 204.53347,-97.87163 1.3338,65.18925 2.6613,130.37858 3.98251,195.56799 -48.8486,3.17001 -84.20544,-9.79018 -115.4081,-28.99303 -31.33232,-19.28265 -58.91699,-45.07407 -93.10788,-68.70333 z"
           inkscape:label="path2"
           sodipodi:nodetypes="cccc"
           inkscape:path-effect="#path-effect3-6-4-8"
           inkscape:original-d="m 524.65171,417.84827 186.69689,-91.4949 -0.29761,182.81159 C 625.03907,513.10872 587.0008,461.12203 524.65171,417.84827 Z"
           transform="matrix(0.75742747,0,0,-0.81850986,187.83424,686.07035)"
           style="fill:#ffff00;fill-opacity:1" />
        <path
           id="path2-3-3-4"
           d="m 504.54125,417.84557 c 69.35032,-31.67172 138.34818,-63.7504 204.53347,-97.87163 1.3338,65.18925 2.6613,130.37858 3.98251,195.56799 -48.8486,3.17001 -84.20544,-9.79018 -115.4081,-28.99303 -31.33232,-19.28265 -58.91699,-45.07407 -93.10788,-68.70333 z"
           inkscape:label="path2"
           sodipodi:nodetypes="cccc"
           inkscape:path-effect="#path-effect3-6-4-3"
           inkscape:original-d="m 524.65171,417.84827 186.69689,-91.4949 -0.29761,182.81159 C 625.03907,513.10872 587.0008,461.12203 524.65171,417.84827 Z"
           transform="matrix(0.71006159,0,0,0.76183355,232.60884,136.122)"
           style="fill:#aa0000;fill-opacity:1" />
      </g>
    </g>
  </g>
</svg>
